<svg width="25" height="38" viewBox="0 0 25 38" fill="none" xmlns="http://www.w3.org/2000/svg">
<path d="M12.5 0C9.18479 0 6.00537 1.34645 3.66117 3.74316C1.31696 6.13986 0 9.39049 0 12.7799C0 22.4744 10.7143 35.3274 11.1429 35.8751L12.5 37.5L13.8571 35.8751C14.2857 35.3274 25 22.4744 25 12.7799C25 9.39049 23.683 6.13986 21.3388 3.74316C18.9946 1.34645 15.8152 0 12.5 0ZM12.5 18.2571C11.4405 18.2571 10.4047 17.9358 9.52373 17.334C8.64275 16.7322 7.95611 15.8768 7.55064 14.8759C7.14518 13.8751 7.03909 12.7739 7.24579 11.7114C7.4525 10.649 7.96272 9.67302 8.71193 8.90703C9.46114 8.14105 10.4157 7.6194 11.4549 7.40807C12.4941 7.19673 13.5712 7.30519 14.5501 7.71974C15.529 8.13429 16.3657 8.83631 16.9543 9.73702C17.543 10.6377 17.8571 11.6967 17.8571 12.7799C17.8571 14.2326 17.2927 15.6257 16.2881 16.6528C15.2834 17.68 13.9208 18.2571 12.5 18.2571Z" fill="#7F007F"/>
</svg>
